<?xml version="1.0" encoding="iso-8859-1"?>
<!-- Generator: Adobe Illustrator 19.0.0, SVG Export Plug-In . SVG Version: 6.00 Build 0)  -->
<svg version="1.1" id="Layer_1" xmlns="http://www.w3.org/2000/svg" xmlns:xlink="http://www.w3.org/1999/xlink" x="0px" y="0px"
	 viewBox="0 0 512.005 512.005" style="enable-background:new 0 0 512.005 512.005;" xml:space="preserve">
<rect x="0.007" y="66.507" style="fill:#CCCCCC;" width="511.993" height="378.994"/>
<polygon style="fill:#E6E6E6;" points="512,66.504 512,445.498 194.232,445.498 300.494,66.504 "/>
<rect x="0.007" y="66.507" style="fill:#F9C573;" width="511.993" height="57.15"/>
<polygon style="fill:#FCD8A9;" points="512,66.504 512,123.655 284.467,123.655 300.494,66.504 "/>
<rect y="118.066" style="fill:#B3B3B3;" width="512.005" height="11.182"/>
<circle style="fill:#F94B54;" cx="31.308" cy="96.324" r="9.318"/>
<circle style="fill:#61BCE0;" cx="91.565" cy="96.324" r="9.318"/>
<circle style="fill:#F2F2F2;" cx="61.437" cy="96.324" r="9.318"/>
<circle style="fill:#9BD7F4;" cx="124.824" cy="231.473" r="75.373"/>
<path style="fill:#F94B54;" d="M146.53,246.738c8.353-6.492,13.742-16.625,13.742-27.997c0-19.549-15.905-35.454-35.454-35.454
	S89.365,199.19,89.365,218.74c0,11.374,5.39,21.508,13.743,28c-8.355,6.493-13.746,16.627-13.746,28.004
	c0,4.116,3.338,7.454,7.454,7.454c4.116,0,7.454-3.338,7.454-7.454c0-11.328,9.214-20.544,20.541-20.549c0.002,0,0.004,0,0.006,0
	c0.004,0,0.006,0,0.01,0c11.327,0.004,20.542,9.221,20.542,20.549c0,4.116,3.338,7.454,7.454,7.454s7.454-3.338,7.454-7.454
	C160.277,263.366,154.886,253.231,146.53,246.738z M104.272,218.74c0-11.328,9.216-20.546,20.544-20.546s20.546,9.216,20.546,20.546
	c0,11.326-9.212,20.539-20.537,20.544c-0.002,0-0.004,0-0.006,0c-0.004,0-0.006,0-0.01,0
	C113.484,239.281,104.272,230.066,104.272,218.74z"/>
<g>
	<rect x="251.35" y="172.732" style="fill:#4D4D4D;" width="63.462" height="18.636"/>
	<rect x="251.35" y="209.755" style="fill:#4D4D4D;" width="211.208" height="18.636"/>
	<rect x="251.35" y="283.802" style="fill:#4D4D4D;" width="211.208" height="18.636"/>
	<rect x="384.386" y="348.159" style="fill:#4D4D4D;" width="78.172" height="18.636"/>
	<rect x="49.443" y="348.159" style="fill:#4D4D4D;" width="315.06" height="18.636"/>
	<rect x="211.282" y="385.182" style="fill:#4D4D4D;" width="251.275" height="18.636"/>
	<rect x="49.445" y="385.17" style="fill:#4D4D4D;" width="142.776" height="18.636"/>
	<rect x="251.35" y="246.779" style="fill:#4D4D4D;" width="63.462" height="18.636"/>
</g>
<path style="fill:#999999;" d="M124.816,313.678c-45.328,0-82.205-36.877-82.205-82.206s36.877-82.206,82.205-82.206
	s82.206,36.877,82.206,82.206S170.145,313.678,124.816,313.678z M124.816,162.934c-37.793,0-68.538,30.747-68.538,68.539
	s30.746,68.539,68.538,68.539s68.539-30.747,68.539-68.539S162.609,162.934,124.816,162.934z"/>
<g>
	<polygon style="fill:#808080;" points="314.806,191.365 265.483,191.365 270.714,172.729 314.806,172.729 	"/>
	<rect x="251.35" y="246.779" style="fill:#808080;" width="63.462" height="18.636"/>
	<polygon style="fill:#808080;" points="364.502,366.792 216.297,366.792 221.527,348.156 364.502,348.156 	"/>
	<polygon style="fill:#808080;" points="462.553,209.753 462.553,228.389 255.109,228.389 260.327,209.753 	"/>
	<rect x="251.35" y="283.802" style="fill:#808080;" width="211.208" height="18.636"/>
	<rect x="384.386" y="348.159" style="fill:#808080;" width="78.172" height="18.636"/>
	<rect x="211.282" y="385.182" style="fill:#808080;" width="251.275" height="18.636"/>
</g>
<g>
</g>
<g>
</g>
<g>
</g>
<g>
</g>
<g>
</g>
<g>
</g>
<g>
</g>
<g>
</g>
<g>
</g>
<g>
</g>
<g>
</g>
<g>
</g>
<g>
</g>
<g>
</g>
<g>
</g>
</svg>
